<svg id="svg" xmlns="http://www.w3.org/2000/svg" xmlns:xlink="http://www.w3.org/1999/xlink" width="400" height="347.9835390946502" viewBox="0, 0, 400,347.9835390946502"><g id="svgg"><path id="path0" d="M35.144 11.755 C 35.551 11.833,36.218 11.833,36.626 11.755 C 37.033 11.677,36.700 11.612,35.885 11.612 C 35.070 11.612,34.737 11.677,35.144 11.755 M111.365 14.486 C 111.365 15.300,111.430 15.634,111.508 15.226 C 111.587 14.819,111.587 14.152,111.508 13.745 C 111.430 13.337,111.365 13.671,111.365 14.486 M99.231 17.119 L 99.259 19.259 101.812 19.282 L 104.364 19.304 101.909 19.186 L 99.455 19.068 99.329 17.023 L 99.204 14.979 99.231 17.119 M336.712 19.327 C 337.121 19.406,337.714 19.403,338.029 19.321 C 338.343 19.238,338.008 19.174,337.284 19.178 C 336.560 19.181,336.302 19.249,336.712 19.327 M357.119 19.327 C 357.527 19.405,358.193 19.405,358.601 19.327 C 359.008 19.249,358.675 19.184,357.860 19.184 C 357.045 19.184,356.712 19.249,357.119 19.327 M348.791 19.840 C 348.703 20.069,348.673 24.255,348.724 29.141 L 348.818 38.025 348.894 28.908 L 348.971 19.791 350.370 19.665 L 351.770 19.539 350.360 19.481 C 349.481 19.446,348.890 19.581,348.791 19.840 M370.529 19.659 C 371.430 19.734,372.294 19.971,372.447 20.186 C 372.640 20.457,372.684 20.425,372.592 20.082 C 372.496 19.726,371.961 19.579,370.674 19.556 L 368.889 19.523 370.529 19.659 M382.305 19.660 C 382.802 19.735,383.617 19.735,384.115 19.660 C 384.613 19.584,384.206 19.523,383.210 19.523 C 382.214 19.523,381.807 19.584,382.305 19.660 M107.731 20.741 C 107.731 21.374,107.798 21.634,107.881 21.317 C 107.964 21.000,107.964 20.481,107.881 20.165 C 107.798 19.848,107.731 20.107,107.731 20.741 M111.023 21.399 C 111.023 22.033,111.091 22.292,111.173 21.975 C 111.256 21.658,111.256 21.140,111.173 20.823 C 111.091 20.506,111.023 20.765,111.023 21.399 M372.482 26.667 C 372.482 30.016,372.531 31.387,372.591 29.712 C 372.651 28.037,372.651 25.296,372.591 23.621 C 372.531 21.947,372.482 23.317,372.482 26.667 M42.551 21.955 C 42.868 22.038,43.387 22.038,43.704 21.955 C 44.021 21.873,43.761 21.805,43.128 21.805 C 42.494 21.805,42.235 21.873,42.551 21.955 M62.473 21.961 C 62.882 22.040,63.475 22.037,63.790 21.955 C 64.105 21.872,63.770 21.808,63.045 21.811 C 62.321 21.815,62.063 21.882,62.473 21.961 M81.897 21.961 C 82.306 22.040,82.899 22.037,83.214 21.955 C 83.528 21.872,83.193 21.808,82.469 21.811 C 81.745 21.815,81.487 21.882,81.897 21.961 M99.231 27.819 C 99.231 31.078,99.280 32.367,99.340 30.683 C 99.400 28.999,99.400 26.332,99.340 24.757 C 99.279 23.182,99.230 24.560,99.231 27.819 M77.772 26.996 C 77.772 27.630,77.840 27.889,77.922 27.572 C 78.005 27.255,78.005 26.737,77.922 26.420 C 77.840 26.103,77.772 26.362,77.772 26.996 M67.595 28.313 C 67.595 29.490,67.655 29.971,67.728 29.383 C 67.801 28.794,67.801 27.831,67.728 27.243 C 67.655 26.654,67.595 27.136,67.595 28.313 M334.568 26.911 C 335.790 26.974,337.790 26.974,339.012 26.911 C 340.235 26.847,339.235 26.796,336.790 26.796 C 334.346 26.796,333.346 26.847,334.568 26.911 M108.060 27.984 C 108.060 28.617,108.128 28.877,108.210 28.560 C 108.293 28.243,108.293 27.724,108.210 27.407 C 108.128 27.091,108.060 27.350,108.060 27.984 M110.694 28.313 C 110.694 28.947,110.761 29.206,110.844 28.889 C 110.927 28.572,110.927 28.053,110.844 27.737 C 110.761 27.420,110.694 27.679,110.694 28.313 M373.617 34.878 C 374.044 35.250,374.550 35.556,374.742 35.556 C 375.146 35.556,375.127 35.539,373.827 34.778 L 372.840 34.200 373.617 34.878 M97.698 37.119 C 98.124 37.527,98.650 37.856,98.866 37.850 C 99.082 37.845,98.963 37.676,98.601 37.475 C 98.239 37.274,97.713 36.945,97.432 36.744 C 97.152 36.543,97.271 36.712,97.698 37.119 M111.605 54.815 C 112.219 55.449,112.796 55.967,112.886 55.967 C 112.977 55.967,112.548 55.449,111.934 54.815 C 111.320 54.181,110.743 53.663,110.653 53.663 C 110.562 53.663,110.991 54.181,111.605 54.815 M109.630 55.473 C 110.244 56.107,110.821 56.626,110.911 56.626 C 111.002 56.626,110.573 56.107,109.959 55.473 C 109.345 54.840,108.768 54.321,108.677 54.321 C 108.587 54.321,109.015 54.840,109.630 55.473 M176.132 81.317 L 148.971 81.481 146.831 82.247 C 139.964 84.705,133.711 90.139,127.758 98.826 C 126.668 100.416,126.118 101.516,126.275 101.789 C 126.413 102.027,126.400 102.108,126.246 101.968 C 125.515 101.304,117.807 116.646,118.394 117.596 C 118.541 117.833,118.468 117.868,118.188 117.695 C 117.867 117.496,117.804 117.609,117.942 118.138 C 118.044 118.529,118.008 118.775,117.861 118.684 C 117.563 118.500,117.451 118.781,115.226 125.267 C 113.034 131.660,110.220 141.438,110.357 142.189 C 110.376 142.298,110.299 142.609,110.184 142.881 C 110.069 143.152,109.665 144.782,109.285 146.502 C 98.602 194.916,102.101 257.203,117.672 295.802 C 119.713 300.862,122.233 306.154,122.519 305.978 C 122.668 305.885,122.693 306.064,122.574 306.374 C 122.415 306.788,122.474 306.867,122.793 306.670 C 123.067 306.500,123.150 306.528,123.016 306.745 C 122.629 307.372,128.124 316.634,128.777 316.453 C 128.956 316.403,129.020 316.496,128.919 316.659 C 128.413 317.477,135.284 325.022,139.095 327.831 C 141.127 329.330,143.539 330.699,143.539 330.354 C 143.539 330.246,143.761 330.381,144.033 330.652 C 146.570 333.189,147.156 333.213,205.597 333.103 L 257.942 333.004 260.174 332.247 C 261.401 331.831,262.320 331.351,262.215 331.181 C 262.109 331.011,262.234 330.953,262.492 331.052 C 262.750 331.150,263.202 330.990,263.497 330.695 C 263.792 330.400,264.033 330.246,264.033 330.354 C 264.033 330.461,264.631 330.243,265.361 329.871 C 266.158 329.464,266.599 329.046,266.463 328.825 C 266.322 328.597,266.385 328.551,266.630 328.702 C 267.564 329.279,273.547 323.779,277.350 318.848 C 281.153 313.917,286.705 304.295,286.227 303.465 C 286.094 303.234,286.110 303.159,286.263 303.298 C 286.632 303.633,288.621 299.312,291.077 292.840 C 304.372 257.803,308.356 200.026,300.415 157.444 C 300.154 156.043,299.852 154.379,299.746 153.745 C 299.578 152.752,297.541 143.113,297.050 140.991 C 296.956 140.586,296.785 140.312,296.670 140.382 C 296.555 140.451,296.436 139.968,296.406 139.308 C 296.278 136.529,290.080 117.617,288.916 116.452 C 288.471 116.008,288.395 115.802,288.395 115.042 C 288.395 114.760,288.261 114.612,288.097 114.714 C 287.932 114.815,287.876 114.602,287.970 114.239 C 288.065 113.877,288.002 113.580,287.830 113.580 C 287.658 113.580,287.517 113.395,287.516 113.169 C 287.515 112.942,286.527 110.770,285.320 108.341 C 282.767 103.203,282.739 103.540,285.668 104.243 C 288.204 104.852,289.053 104.722,289.053 103.727 C 289.053 103.037,288.069 102.647,285.185 102.193 C 283.582 101.941,283.544 101.808,284.280 98.983 C 284.905 96.581,284.899 96.250,284.221 95.990 C 283.373 95.665,282.894 96.404,282.229 99.068 L 281.619 101.510 280.380 99.644 C 279.699 98.617,279.002 97.778,278.830 97.778 C 278.659 97.778,278.556 97.593,278.601 97.366 C 278.646 97.140,278.487 96.995,278.247 97.045 C 278.007 97.095,277.890 97.009,277.986 96.853 C 278.258 96.412,276.556 94.109,276.145 94.363 C 275.931 94.496,275.876 94.437,276.012 94.217 C 276.303 93.747,271.321 88.493,270.856 88.780 C 270.669 88.896,270.608 88.841,270.721 88.657 C 271.019 88.177,266.377 84.814,263.601 83.499 C 259.166 81.398,260.918 81.518,231.900 81.327 L 205.200 81.152 204.978 91.523 C 204.123 131.504,203.786 148.204,203.617 158.848 C 203.399 172.674,203.359 173.169,202.474 173.169 C 201.505 173.169,201.503 175.103,202.509 127.572 C 203.033 102.765,203.424 82.173,203.377 81.811 C 203.293 81.157,203.106 81.153,176.132 81.317 M108.734 81.728 C 108.090 82.560,107.871 83.072,108.260 82.831 C 108.650 82.590,109.430 81.317,109.188 81.317 C 109.113 81.317,108.909 81.502,108.734 81.728 M293.974 93.086 L 292.840 94.321 294.074 93.186 C 295.223 92.130,295.460 91.852,295.209 91.852 C 295.154 91.852,294.598 92.407,293.974 93.086 M295.291 94.403 L 294.156 95.638 295.391 94.503 C 296.540 93.447,296.777 93.169,296.525 93.169 C 296.470 93.169,295.915 93.724,295.291 94.403 M109.680 113.332 C 109.006 114.007,109.264 114.443,111.276 116.023 C 113.643 117.883,113.634 117.801,111.742 120.015 C 110.191 121.830,109.943 122.963,111.095 122.963 C 112.647 122.963,116.104 117.662,115.136 116.767 C 112.202 114.053,110.212 112.800,109.680 113.332 M107.078 119.404 C 107.395 119.487,107.914 119.487,108.230 119.404 C 108.547 119.321,108.288 119.253,107.654 119.253 C 107.021 119.253,106.761 119.321,107.078 119.404 " stroke="none" fill="#2c3b43" fill-rule="evenodd"></path><path id="path1" d="M34.568 24.874 L 34.568 37.896 36.132 37.796 L 37.695 37.695 37.860 31.111 C 38.069 22.744,38.752 21.605,43.395 21.873 C 46.520 22.053,46.556 22.147,46.749 30.543 L 46.914 37.695 48.477 37.796 L 50.041 37.896 50.027 31.047 C 50.012 23.919,49.788 22.441,48.509 21.002 C 46.362 18.588,41.082 18.487,38.605 20.814 C 38.061 21.325,37.856 21.387,37.843 21.045 C 37.834 20.787,37.841 18.613,37.859 16.214 L 37.892 11.852 36.230 11.852 L 34.568 11.852 34.568 24.874 M20.653 13.231 C 12.656 14.901,13.765 24.270,22.262 26.827 C 26.660 28.150,28.088 30.346,26.590 33.481 C 25.759 35.221,21.964 35.681,17.613 34.568 C 16.197 34.206,14.988 33.909,14.927 33.909 C 14.865 33.909,14.815 34.634,14.815 35.520 L 14.815 37.130 17.160 37.660 C 23.564 39.106,28.718 37.392,30.092 33.358 C 31.561 29.049,29.509 26.253,23.134 23.879 C 19.269 22.440,17.908 20.396,18.970 17.628 C 19.532 16.163,23.912 15.627,27.190 16.622 C 29.309 17.265,29.171 17.314,29.562 15.774 C 29.899 14.446,29.890 14.423,28.820 13.976 C 26.540 13.024,23.135 12.713,20.653 13.231 M107.773 18.683 C 107.892 21.716,108.084 25.790,108.198 27.737 L 108.406 31.276 109.463 31.276 L 110.520 31.276 110.725 28.230 C 110.838 26.556,111.030 22.481,111.153 19.177 L 111.376 13.169 109.466 13.169 L 107.555 13.169 107.773 18.683 M299.996 25.761 L 300.082 38.025 301.656 38.125 L 303.229 38.226 303.137 28.527 C 303.087 23.192,303.139 18.886,303.253 18.957 C 303.460 19.084,304.485 21.608,306.521 26.996 C 310.637 37.892,310.781 38.189,311.938 38.189 C 313.173 38.189,313.503 37.859,314.076 36.049 C 314.305 35.325,315.047 33.325,315.726 31.605 C 316.404 29.885,317.829 26.255,318.891 23.539 L 320.823 18.601 320.910 28.395 L 320.997 38.189 322.639 38.189 L 324.280 38.189 324.280 25.844 L 324.280 13.498 322.015 13.498 C 319.850 13.498,319.735 13.538,319.397 14.403 C 319.202 14.901,318.285 17.309,317.360 19.753 C 314.557 27.156,312.338 32.593,312.119 32.593 C 312.005 32.593,311.666 31.963,311.366 31.193 C 310.026 27.759,307.699 21.669,306.806 19.259 C 306.270 17.811,305.689 16.329,305.515 15.967 C 305.341 15.605,305.051 14.901,304.871 14.403 C 304.556 13.532,304.455 13.498,302.226 13.498 L 299.910 13.498 299.996 25.761 M96.960 16.232 C 96.710 16.831,96.400 17.740,96.272 18.252 C 96.104 18.920,95.680 19.334,94.771 19.715 C 92.928 20.489,92.863 22.163,94.683 22.006 L 95.867 21.904 95.917 27.989 C 95.961 33.354,96.045 34.230,96.626 35.391 C 98.216 38.573,104.266 39.286,104.602 36.332 L 104.720 35.298 102.648 35.272 C 99.253 35.231,99.095 34.898,99.095 27.801 L 99.095 22.058 101.728 22.058 L 104.362 22.058 104.362 20.755 L 104.362 19.452 101.811 19.355 L 99.259 19.259 99.161 17.202 C 99.042 14.691,97.828 14.156,96.960 16.232 M59.508 19.547 C 54.785 21.014,52.626 27.753,55.091 33.327 C 58.130 40.200,68.047 39.608,70.409 32.413 C 73.128 24.131,67.214 17.152,59.508 19.547 M79.685 19.614 C 72.350 22.796,72.730 35.111,80.242 37.671 C 88.150 40.365,94.242 31.536,90.154 23.306 C 88.392 19.758,83.406 18.000,79.685 19.614 M333.435 20.259 C 328.420 22.870,327.320 32.225,331.572 36.095 C 334.041 38.340,337.849 39.017,341.646 37.885 L 344.033 37.174 344.033 35.706 C 344.033 34.899,343.996 34.241,343.951 34.243 C 343.905 34.245,342.929 34.542,341.781 34.901 C 336.440 36.576,333.139 35.102,332.383 30.707 L 332.200 29.644 338.364 29.555 L 344.527 29.465 344.523 27.325 C 344.513 21.183,338.733 17.500,333.435 20.259 M354.578 19.928 C 353.949 20.210,353.181 20.671,352.870 20.952 C 352.203 21.556,351.605 21.291,351.605 20.392 C 351.605 19.866,351.372 19.753,350.288 19.753 L 348.971 19.753 348.971 28.989 L 348.971 38.225 350.535 38.125 L 352.099 38.025 352.263 31.440 C 352.476 22.932,353.234 21.687,357.926 22.138 C 360.925 22.426,360.971 22.554,361.093 30.955 L 361.198 38.189 362.844 38.189 L 364.490 38.189 364.385 30.864 C 364.268 22.698,364.186 22.343,362.028 20.607 C 360.486 19.367,356.616 19.014,354.578 19.928 M369.133 26.914 C 369.234 34.490,369.266 34.654,370.962 36.577 C 372.889 38.762,377.865 38.988,380.472 37.010 C 381.783 36.014,381.827 36.017,381.953 37.119 C 382.047 37.929,382.205 38.035,383.457 38.126 L 384.856 38.227 384.856 28.990 L 384.856 19.753 383.235 19.753 L 381.614 19.753 381.507 26.091 C 381.365 34.420,380.733 35.556,376.237 35.556 C 372.756 35.556,372.307 34.482,372.346 26.253 C 372.361 23.131,372.367 20.391,372.360 20.165 C 372.350 19.892,371.788 19.753,370.691 19.753 L 369.036 19.753 369.133 26.914 M65.201 22.470 C 68.524 24.709,68.687 32.587,65.452 34.559 C 60.369 37.659,55.681 31.708,57.903 24.977 C 58.841 22.133,62.723 20.800,65.201 22.470 M85.833 22.568 C 88.930 24.598,88.774 33.089,85.610 34.726 C 81.282 36.964,77.884 34.211,77.869 28.454 C 77.854 22.775,81.752 19.894,85.833 22.568 M338.908 22.379 C 339.993 22.791,341.067 24.555,341.069 25.926 L 341.070 26.996 336.790 26.996 C 332.707 26.996,332.510 26.965,332.510 26.327 C 332.510 23.304,335.877 21.226,338.908 22.379 M108.477 33.644 C 106.417 34.813,107.108 38.189,109.409 38.189 C 111.454 38.189,112.327 35.590,110.797 34.059 C 109.905 33.167,109.459 33.088,108.477 33.644 M70.598 42.501 C 70.097 43.311,71.579 43.730,77.860 44.558 C 87.507 45.830,95.791 47.707,99.918 49.556 C 111.166 54.597,114.970 59.191,114.478 67.142 C 114.195 71.712,111.219 79.141,108.011 83.284 C 107.516 83.922,106.310 85.630,105.329 87.078 C 104.349 88.527,103.466 89.786,103.367 89.877 C 103.194 90.036,101.040 93.619,99.509 96.296 C 93.129 107.449,92.971 115.524,99.081 118.152 C 102.559 119.648,110.017 119.758,110.223 118.315 C 110.319 117.642,110.171 117.612,105.943 117.449 C 99.345 117.195,97.172 116.012,96.466 112.291 C 95.509 107.243,99.969 97.296,108.510 85.432 C 122.000 66.694,118.146 53.728,97.002 46.710 C 88.714 43.959,71.402 41.199,70.598 42.501 M337.067 42.631 C 336.978 42.720,335.213 43.448,333.144 44.249 C 316.279 50.777,303.348 58.382,298.919 64.378 C 295.991 68.341,295.792 70.990,298.054 75.885 C 301.543 83.431,298.765 90.390,289.745 96.701 C 286.970 98.644,286.091 99.431,286.091 99.975 C 286.091 100.823,287.653 100.395,289.576 99.019 C 300.667 91.086,303.651 83.882,299.543 74.962 C 295.886 67.024,301.072 61.221,320.165 51.884 C 325.659 49.197,328.728 47.860,336.558 44.741 C 338.589 43.933,339.283 43.370,338.939 42.813 C 338.724 42.465,337.365 42.333,337.067 42.631 " stroke="none" fill="#050505" fill-rule="evenodd"></path><path id="path2" d="M34.389 24.856 C 34.389 32.099,34.432 35.015,34.485 31.336 C 34.538 27.657,34.538 21.731,34.485 18.167 C 34.432 14.603,34.389 17.613,34.389 24.856 M324.428 26.502 C 324.428 32.658,324.472 35.130,324.526 31.995 C 324.580 28.860,324.580 23.823,324.526 20.802 C 324.472 17.781,324.428 20.346,324.428 26.502 M42.720 18.998 C 43.129 19.077,43.722 19.074,44.037 18.992 C 44.352 18.909,44.016 18.845,43.292 18.848 C 42.568 18.852,42.310 18.920,42.720 18.998 M104.452 20.741 C 104.452 21.556,104.516 21.889,104.594 21.481 C 104.673 21.074,104.673 20.407,104.594 20.000 C 104.516 19.593,104.452 19.926,104.452 20.741 M381.369 24.856 C 381.369 27.934,381.418 29.238,381.479 27.753 C 381.540 26.268,381.540 23.749,381.480 22.156 C 381.419 20.563,381.370 21.778,381.369 24.856 M50.179 31.440 C 50.179 35.062,50.227 36.588,50.286 34.832 C 50.345 33.077,50.346 30.114,50.287 28.248 C 50.228 26.382,50.180 27.819,50.179 31.440 M320.793 31.440 C 320.793 34.519,320.842 35.822,320.903 34.337 C 320.964 32.852,320.964 30.334,320.904 28.740 C 320.843 27.147,320.794 28.362,320.793 31.440 M364.581 32.263 C 364.581 35.613,364.630 36.984,364.690 35.309 C 364.749 33.634,364.749 30.893,364.690 29.218 C 364.630 27.543,364.581 28.914,364.581 32.263 M302.222 63.374 C 301.423 64.189,300.842 64.856,300.933 64.856 C 301.023 64.856,301.752 64.189,302.551 63.374 C 303.351 62.560,303.931 61.893,303.841 61.893 C 303.750 61.893,303.022 62.560,302.222 63.374 M298.348 70.782 C 298.348 71.416,298.416 71.675,298.499 71.358 C 298.581 71.041,298.581 70.523,298.499 70.206 C 298.416 69.889,298.348 70.148,298.348 70.782 M299.342 81.811 C 299.346 82.535,299.413 82.793,299.492 82.383 C 299.571 81.973,299.568 81.381,299.485 81.066 C 299.403 80.751,299.339 81.086,299.342 81.811 M164.527 81.234 C 171.634 81.284,183.263 81.284,190.370 81.234 C 197.477 81.185,191.663 81.144,177.449 81.144 C 163.235 81.144,157.420 81.185,164.527 81.234 M203.483 81.564 C 203.498 81.908,203.576 81.974,203.675 81.728 C 203.766 81.502,204.038 81.317,204.280 81.317 C 204.521 81.317,204.794 81.502,204.885 81.728 C 204.984 81.974,205.061 81.908,205.077 81.564 C 205.095 81.162,204.854 80.988,204.280 80.988 C 203.706 80.988,203.465 81.162,203.483 81.564 M218.049 81.234 C 225.079 81.284,236.486 81.284,243.399 81.234 C 250.311 81.185,244.560 81.144,230.617 81.144 C 216.675 81.144,211.019 81.185,218.049 81.234 M204.892 90.535 C 204.892 92.255,204.948 92.959,205.016 92.099 C 205.083 91.239,205.083 89.831,205.016 88.971 C 204.948 88.111,204.892 88.815,204.892 90.535 M272.757 90.206 C 273.832 91.292,274.786 92.181,274.877 92.181 C 274.967 92.181,274.162 91.292,273.086 90.206 C 272.011 89.119,271.058 88.230,270.967 88.230 C 270.877 88.230,271.682 89.119,272.757 90.206 M203.246 92.181 C 203.246 93.901,203.302 94.605,203.370 93.745 C 203.437 92.885,203.437 91.477,203.370 90.617 C 203.302 89.757,203.246 90.461,203.246 92.181 M133.477 91.276 L 132.510 92.346 133.580 91.379 C 134.169 90.847,134.650 90.365,134.650 90.309 C 134.650 90.054,134.379 90.278,133.477 91.276 M204.557 106.173 C 204.558 107.621,204.616 108.173,204.686 107.399 C 204.755 106.624,204.754 105.439,204.684 104.765 C 204.613 104.091,204.556 104.724,204.557 106.173 M202.915 107.819 C 202.914 109.449,202.970 110.157,203.039 109.393 C 203.108 108.629,203.109 107.295,203.041 106.430 C 202.973 105.564,202.916 106.189,202.915 107.819 M121.975 108.313 C 121.694 108.856,121.539 109.300,121.629 109.300 C 121.720 109.300,122.024 108.856,122.305 108.313 C 122.585 107.770,122.741 107.325,122.651 107.325 C 122.560 107.325,122.256 107.770,121.975 108.313 M94.239 110.782 C 94.243 111.506,94.310 111.764,94.389 111.354 C 94.468 110.945,94.465 110.352,94.383 110.037 C 94.300 109.723,94.236 110.058,94.239 110.782 M288.418 115.062 C 288.418 115.243,288.630 115.761,288.889 116.214 C 289.148 116.667,289.359 116.889,289.359 116.708 C 289.359 116.527,289.148 116.008,288.889 115.556 C 288.630 115.103,288.418 114.881,288.418 115.062 M112.346 117.063 C 112.663 117.439,112.922 117.872,112.922 118.025 C 112.922 118.177,112.663 118.610,112.346 118.986 C 111.770 119.670,111.770 119.670,112.510 119.044 C 112.918 118.699,113.251 118.240,113.251 118.025 C 113.251 117.809,112.918 117.351,112.510 117.006 C 111.770 116.379,111.770 116.379,112.346 117.063 M104.931 117.439 C 105.515 117.512,106.552 117.513,107.235 117.442 C 107.919 117.371,107.440 117.311,106.173 117.310 C 104.905 117.308,104.346 117.367,104.931 117.439 M204.230 121.811 C 204.230 123.350,204.287 123.979,204.356 123.210 C 204.426 122.440,204.426 121.181,204.356 120.412 C 204.287 119.642,204.230 120.272,204.230 121.811 M202.586 123.951 C 202.585 125.580,202.641 126.288,202.710 125.524 C 202.779 124.760,202.780 123.427,202.712 122.561 C 202.643 121.696,202.587 122.321,202.586 123.951 M203.905 137.613 C 203.905 139.333,203.960 140.037,204.028 139.177 C 204.096 138.317,204.096 136.909,204.028 136.049 C 203.960 135.189,203.905 135.893,203.905 137.613 M202.255 139.588 C 202.255 141.128,202.312 141.757,202.381 140.988 C 202.450 140.218,202.450 138.959,202.381 138.189 C 202.312 137.420,202.255 138.049,202.255 139.588 M203.574 153.251 C 203.573 154.881,203.628 155.589,203.697 154.825 C 203.766 154.061,203.767 152.727,203.699 151.862 C 203.631 150.996,203.575 151.621,203.574 153.251 M201.926 155.720 C 201.926 157.259,201.982 157.889,202.052 157.119 C 202.121 156.350,202.121 155.091,202.052 154.321 C 201.982 153.551,201.926 154.181,201.926 155.720 M203.240 169.712 C 203.242 171.160,203.300 171.712,203.369 170.938 C 203.439 170.163,203.438 168.978,203.367 168.304 C 203.296 167.630,203.239 168.263,203.240 169.712 M201.618 170.864 C 201.643 172.764,201.720 173.008,202.305 173.036 C 202.775 173.060,202.803 173.030,202.402 172.933 C 201.967 172.828,201.813 172.341,201.716 170.761 L 201.591 168.724 201.618 170.864 M103.451 188.642 C 103.451 189.276,103.519 189.535,103.601 189.218 C 103.684 188.901,103.684 188.383,103.601 188.066 C 103.519 187.749,103.451 188.008,103.451 188.642 M303.951 188.807 C 303.955 189.531,304.022 189.788,304.101 189.379 C 304.180 188.969,304.177 188.377,304.095 188.062 C 304.012 187.747,303.948 188.082,303.951 188.807 M103.135 195.226 C 103.135 196.041,103.199 196.374,103.278 195.967 C 103.356 195.560,103.356 194.893,103.278 194.486 C 103.199 194.078,103.135 194.412,103.135 195.226 M304.303 195.885 C 304.303 197.062,304.363 197.543,304.436 196.955 C 304.509 196.366,304.509 195.403,304.436 194.815 C 304.363 194.226,304.303 194.708,304.303 195.885 M304.306 218.436 C 304.307 219.704,304.367 220.182,304.438 219.499 C 304.509 218.816,304.508 217.779,304.435 217.194 C 304.362 216.610,304.304 217.169,304.306 218.436 M103.135 218.930 C 103.135 219.745,103.199 220.078,103.278 219.671 C 103.356 219.263,103.356 218.597,103.278 218.189 C 103.199 217.782,103.135 218.115,103.135 218.930 M303.958 225.514 C 303.958 226.329,304.022 226.663,304.101 226.255 C 304.179 225.848,304.179 225.181,304.101 224.774 C 304.022 224.366,303.958 224.700,303.958 225.514 M103.458 225.679 C 103.461 226.403,103.529 226.661,103.607 226.251 C 103.686 225.842,103.683 225.249,103.601 224.934 C 103.518 224.620,103.454 224.955,103.458 225.679 M123.292 308.477 C 123.573 309.021,123.877 309.465,123.968 309.465 C 124.058 309.465,123.902 309.021,123.621 308.477 C 123.340 307.934,123.037 307.490,122.946 307.490 C 122.856 307.490,123.011 307.934,123.292 308.477 M264.033 330.535 C 263.399 330.882,262.999 331.172,263.144 331.180 C 263.493 331.198,265.350 330.232,265.350 330.033 C 265.350 329.817,265.331 329.825,264.033 330.535 " stroke="none" fill="#94989c" fill-rule="evenodd"></path></g></svg>